<svg xmlns="http://www.w3.org/2000/svg" width="16" height="16"><path d="M2.361 7.889c-.076 0-.111.035-.111.111s.035.111.111.111c.077 0 .112-.035.112-.111s-.035-.111-.112-.111zM13.639 7.889c-.077 0-.112.035-.112.111s.035.111.112.111c.076 0 .111-.035.111-.111s-.035-.111-.111-.111z"/><path d="M7.846 1.012a1 1 0 0 0-.293.093l-6 2.999A1 1 0 0 0 1 5v.78c.398-.248.865-.391 1.361-.391 1.282 0 2.367.955 2.575 2.183L7 8.604v3.765l-3.799-1.9A2.562 2.562 0 0 1 1 10.22V11a1 1 0 0 0 .553.895l6 3a1 1 0 0 0 .894 0l6-3A1 1 0 0 0 15 11v-.78c-.398.248-.865.391-1.361.391A2.63 2.63 0 0 1 11.027 8a2.63 2.63 0 0 1 2.612-2.611c.496 0 .963.143 1.361.39V5a1 1 0 0 0-.553-.895l-6-3a1 1 0 0 0-.601-.093zM8 3.104l3.764 1.882L8 6.867l-3.764-1.88L8 3.103z" style="stroke:none;stroke-opacity:1;fill:#e0e0e0;fill-opacity:1"/><circle cx="13.639" cy="8" r="2" style="fill:#e0e0e0;fill-opacity:1;stroke:none;stroke-width:2.5;stroke-linejoin:round;stroke-opacity:1;paint-order:stroke fill markers"/><circle cx="-47.117" cy="8.345" r="1.361" style="fill:#fff;stroke:#141414;stroke-width:2.5;stroke-linejoin:round;paint-order:stroke fill markers"/><circle cx="2.361" cy="8" r="2" style="fill:#e0e0e0;fill-opacity:1;stroke:none;stroke-width:2.5;stroke-linejoin:round;stroke-opacity:1;paint-order:stroke fill markers"/></svg>